# xmcd
#
# Track frame offsets:
# 150
# 16755
# 34473
# 47505
# 68378
# 84573
# 101098
# 110268
# 127868
# 146160
# 160658
# 172500
# 186879
#
# Disc length: 2678 seconds
#
# Revision: 0
# Processed by: cddbd v1.5.2PL0 Copyright (c) Steve Scherf et al.
# Submitted via: Axialis_AX_CDPlayer 2.6
#
DISCID=980a740d
DTITLE=Various Artist - Living Country Blues USA Volume 11 - Country Gospel
DTITLE=\nRock
DYEAR=1900
DGENRE=
TTITLE0=You Gonna Take Sick And Die - Boyd Rivers
TTITLE1=Go Down, Moses - Guitar Frank
TTITLE2=The World, She's Windin' Up - Cora Fluker and Ola Mae Bell
TTITLE3=When The World Seems Cold - Boyd Rivers
TTITLE4=Mother Bowed - Walter Brown
TTITLE5=Jesus On The Mainline - Boyd Rivers
TTITLE6=What A Friend We Have In Jesus - Guitar Slim
TTITLE7=I'm Wrapped Up - Boyd Rivers
TTITLE8=When I Lay My Burden Down - Othar Turner and The Rising Star Fife And 
TTITLE8=Drum \nBand
TTITLE9=Yonder Comes Jesus - Cora Fluker
TTITLE10=Oh Lord, I Wanna Be Your Child - Boyd Rivers
TTITLE11=Precious Lord - Boyd Rivers
TTITLE12=When The War Is Over - Flora Molton And The Truth Band
EXTD=
EXTT0=
EXTT1=
EXTT2=
EXTT3=
EXTT4=
EXTT5=
EXTT6=
EXTT7=
EXTT8=
EXTT9=
EXTT10=
EXTT11=
EXTT12=
PLAYORDER=
